<?xml version="1.0" standalone="no"?>
<!DOCTYPE svg PUBLIC "-//W3C//DTD SVG 20010904//EN"
 "http://www.w3.org/TR/2001/REC-SVG-20010904/DTD/svg10.dtd">
<svg version="1.0" xmlns="http://www.w3.org/2000/svg"
 width="512.000000pt" height="512.000000pt" viewBox="0 0 512.000000 512.000000"
 preserveAspectRatio="xMidYMid meet">

<g transform="translate(0.000000,512.000000) scale(0.100000,-0.100000)"
fill="#000000" stroke="none">
<path d="M881 4894 c-70 -19 -111 -44 -160 -100 -50 -57 -75 -130 -75 -215 0
-91 45 -183 115 -239 27 -21 58 -42 69 -45 19 -6 20 -15 20 -286 l0 -279 -190
0 c-163 0 -197 -3 -240 -19 -78 -30 -134 -81 -172 -159 l-33 -67 0 -1290 c0
-1222 1 -1293 18 -1342 22 -64 90 -141 151 -174 l46 -24 0 -138 c0 -182 19
-229 115 -280 34 -18 61 -22 177 -25 176 -5 229 9 286 73 50 57 62 104 62 244
l0 111 320 0 320 0 0 -85 c0 -150 62 -254 188 -313 l57 -27 1324 -3 c1457 -3
1394 -5 1486 58 52 36 86 78 117 146 l23 49 0 780 c0 707 -2 786 -17 847 -59
227 -213 414 -422 508 -105 48 -176 61 -362 67 l-171 6 -12 48 c-38 148 -185
294 -348 346 -66 21 -92 23 -261 23 -210 0 -266 -10 -365 -62 -33 -18 -85 -56
-116 -85 -30 -29 -57 -53 -58 -53 -1 0 -3 138 -5 308 l-3 307 -27 50 c-14 28
-47 70 -71 92 -78 72 -96 76 -327 83 l-205 5 -3 271 -2 272 44 26 c63 37 131
117 152 178 12 36 15 72 12 127 -7 127 -67 214 -188 270 l-55 26 -580 2 c-485
2 -589 0 -634 -13z m1220 -233 c47 -48 37 -130 -21 -164 -25 -15 -83 -17 -585
-17 -619 0 -603 -2 -631 67 -19 43 -5 93 33 123 25 20 39 20 600 20 l575 0 29
-29z m-181 -661 l0 -270 -425 0 -425 0 0 270 0 270 425 0 425 0 0 -270z m607
-513 l28 -27 3 -395 3 -395 -63 0 c-59 0 -136 -9 -220 -25 l-37 -7 -3 250 c-3
249 -3 251 -27 276 -48 51 -142 40 -170 -20 -7 -17 -11 -123 -11 -317 l0 -292
-51 -40 c-103 -82 -192 -214 -240 -360 -24 -70 -24 -74 -29 -675 l-5 -605
-580 -3 c-390 -2 -592 1 -617 8 -20 6 -46 22 -57 37 -21 26 -21 30 -21 1284 0
877 3 1265 11 1282 6 13 23 31 37 40 25 15 108 16 1024 14 l998 -2 27 -28z
m981 -622 c28 -9 70 -30 94 -48 40 -30 108 -118 108 -138 0 -5 -176 -9 -405
-9 -455 0 -420 -7 -363 77 33 49 94 94 158 116 63 22 335 23 408 2z m-838
-1105 l0 -690 -55 0 -55 0 0 690 0 690 55 0 55 0 0 -690z m1060 160 l0 -530
-425 0 -425 0 0 530 0 530 425 0 425 0 0 -530z m320 -160 l0 -690 -50 0 -50 0
0 690 0 690 50 0 50 0 0 -690z m-1702 158 l-3 -523 -45 4 c-71 5 -209 49 -295
95 l-80 42 -3 217 c-3 286 16 368 114 498 69 90 220 184 302 188 10 1 12 -107
10 -521z m2051 475 c132 -64 238 -195 276 -338 11 -45 15 -115 15 -287 l0
-228 -32 -20 c-97 -60 -231 -107 -350 -124 l-38 -5 0 526 0 525 28 -6 c15 -4
60 -23 101 -43z m-2354 -1148 c50 -18 139 -41 198 -51 l107 -18 0 -52 c0 -51
-1 -53 -36 -64 -39 -13 -74 -60 -74 -98 0 -39 29 -83 65 -98 53 -22 574 -20
620 2 31 14 65 64 65 94 0 34 -35 81 -71 97 -38 16 -39 19 -39 65 l0 48 425 0
425 0 0 -50 c0 -47 -2 -50 -34 -64 -43 -18 -66 -51 -66 -96 0 -45 23 -78 66
-96 48 -20 560 -20 608 0 43 18 66 51 66 96 0 45 -23 78 -66 96 -33 14 -34 16
-34 68 l0 54 79 11 c99 15 202 43 277 76 31 14 58 25 60 25 2 0 4 -180 4 -401
l0 -401 -29 -29 -29 -29 -1316 0 c-924 0 -1322 3 -1339 11 -56 25 -57 32 -57
459 0 370 1 392 18 385 9 -4 58 -22 107 -40z m-1195 -710 l0 -105 -105 0 -105
0 0 105 0 105 105 0 105 0 0 -105z"/>
<path d="M798 3183 c-14 -9 -31 -27 -37 -40 -8 -17 -11 -314 -11 -962 0 -926
0 -939 20 -964 30 -38 80 -52 123 -33 71 29 68 -30 65 1016 l-3 940 -26 26
c-33 33 -94 41 -131 17z"/>
<path d="M1438 3183 c-14 -9 -31 -27 -37 -40 -8 -17 -11 -314 -11 -962 0 -926
0 -939 20 -964 30 -38 80 -52 123 -33 71 29 68 -30 65 1016 l-3 940 -26 26
c-33 33 -94 41 -131 17z"/>
<path d="M3019 1781 c-47 -48 -37 -130 21 -164 24 -15 62 -17 265 -17 266 0
285 4 311 67 19 43 5 93 -33 123 -24 19 -40 20 -280 20 l-255 0 -29 -29z"/>
</g>
</svg>
