<?xml version="1.0" standalone="no"?>
<!DOCTYPE svg PUBLIC "-//W3C//DTD SVG 20010904//EN"
 "http://www.w3.org/TR/2001/REC-SVG-20010904/DTD/svg10.dtd">
<svg version="1.0" xmlns="http://www.w3.org/2000/svg"
 width="512.000000pt" height="512.000000pt" viewBox="0 0 512.000000 512.000000"
 preserveAspectRatio="xMidYMid meet">

<g transform="translate(0.000000,512.000000) scale(0.100000,-0.100000)"
fill="#000000" stroke="none">
<path d="M975 4768 c-126 -16 -232 -95 -292 -216 -36 -72 -38 -81 -38 -172 0
-88 3 -101 33 -162 42 -86 109 -153 192 -192 59 -28 74 -31 165 -31 88 0 107
3 158 27 161 76 261 261 228 425 -43 216 -228 349 -446 321z m190 -125 c210
-110 211 -414 2 -520 -145 -73 -319 -15 -394 131 -36 69 -38 179 -5 247 30 62
84 116 146 146 44 21 62 24 131 20 56 -2 92 -10 120 -24z"/>
<path d="M2877 4752 c-40 -45 -6 -122 53 -122 59 0 90 67 54 118 -20 28 -83
31 -107 4z"/>
<path d="M4373 4618 c-68 -33 -40 -138 37 -138 28 0 70 44 70 73 0 51 -61 88
-107 65z"/>
<path d="M1891 4204 c-12 -15 -21 -34 -21 -44 0 -34 39 -70 75 -70 36 0 75 36
75 70 0 34 -39 70 -75 70 -24 0 -39 -7 -54 -26z"/>
<path d="M3072 4180 c-342 -48 -629 -264 -772 -582 l-34 -75 -61 33 c-133 73
-279 103 -416 84 -299 -41 -528 -248 -593 -537 -40 -178 0 -387 102 -535 l30
-43 -349 -608 c-259 -452 -349 -616 -349 -640 0 -18 9 -102 20 -187 11 -85 20
-161 20 -167 0 -7 10 -19 23 -28 22 -14 33 -11 188 56 90 39 174 77 186 84 12
8 43 53 70 99 l48 85 98 27 c61 17 101 33 107 44 6 11 2 42 -10 91 -23 87 -24
99 -9 99 7 0 43 9 80 20 93 28 96 36 64 154 l-26 95 148 259 148 260 95 1
c100 1 208 24 281 61 21 11 43 20 48 20 7 0 10 -189 10 -571 0 -408 3 -575 11
-583 12 -12 1843 -22 1907 -11 17 3 34 13 38 23 3 9 6 489 5 1066 0 892 -3
1059 -15 1121 -93 448 -470 770 -923 789 -59 3 -135 1 -170 -4z m200 -506 c38
-19 65 -58 73 -104 14 -82 -62 -170 -145 -170 -50 0 -107 37 -130 85 -24 49
-25 74 -6 118 34 81 125 112 208 71z m-1304 -429 c68 -21 152 -97 182 -167 23
-52 34 -167 18 -183 -7 -7 -45 3 -125 32 -30 11 -43 21 -43 35 0 10 -6 31 -14
46 -45 86 -145 101 -212 31 -25 -26 -29 -38 -29 -85 0 -51 3 -58 37 -90 31
-28 45 -34 82 -34 25 0 55 5 68 10 18 9 42 5 112 -18 l89 -29 -39 -42 c-113
-125 -303 -135 -427 -21 -71 65 -100 130 -101 225 -2 169 129 302 300 304 28
1 73 -6 102 -14z m-74 -278 c16 -25 -16 -56 -38 -37 -19 15 -21 46 -3 53 18 8
29 3 41 -16z m2196 -1292 l0 -95 -890 0 -890 0 0 95 0 95 890 0 890 0 0 -95z"/>
<path d="M419 3772 c-33 -27 -30 -78 6 -109 32 -28 69 -25 98 9 56 66 -36 155
-104 100z"/>
<path d="M473 2395 c-66 -47 -8 -150 70 -123 51 18 63 79 24 116 -27 26 -64
28 -94 7z"/>
<path d="M4606 1309 c-34 -27 -35 -71 -1 -104 27 -28 42 -30 79 -14 37 17 51
60 32 97 -24 47 -66 55 -110 21z"/>
<path d="M1791 1054 c-12 -15 -21 -34 -21 -44 0 -10 9 -29 21 -44 41 -52 129
-22 129 44 0 64 -90 94 -129 44z"/>
<path d="M3644 929 c-144 -27 -234 -129 -242 -275 -4 -62 0 -80 24 -134 49
-110 151 -174 276 -172 106 2 202 64 256 167 37 71 37 178 0 250 -62 119 -191
187 -314 164z m163 -135 c102 -81 102 -227 0 -308 -52 -41 -136 -48 -202 -16
-132 64 -141 252 -16 332 41 26 53 29 113 26 57 -3 73 -8 105 -34z"/>
<path d="M2503 780 c-25 -10 -43 -39 -43 -70 0 -29 44 -70 75 -70 33 0 75 41
75 73 0 51 -59 87 -107 67z"/>
</g>
</svg>
