<?xml version="1.0" standalone="no"?>
<!DOCTYPE svg PUBLIC "-//W3C//DTD SVG 20010904//EN"
 "http://www.w3.org/TR/2001/REC-SVG-20010904/DTD/svg10.dtd">
<svg version="1.0" xmlns="http://www.w3.org/2000/svg"
 width="512.000000pt" height="512.000000pt" viewBox="0 0 512.000000 512.000000"
 preserveAspectRatio="xMidYMid meet">

<g transform="translate(0.000000,512.000000) scale(0.100000,-0.100000)"
fill="#000000" stroke="none">
<path d="M1860 5110 c-136 -25 -243 -83 -346 -185 -118 -117 -172 -223 -194
-381 -13 -96 1 -220 35 -311 14 -36 25 -67 25 -69 0 -2 -65 -4 -144 -4 l-143
0 -51 68 c-79 107 -192 184 -319 218 -85 22 -233 20 -313 -5 -142 -44 -285
-164 -348 -290 -66 -133 -63 -23 -60 -1946 l3 -1740 26 -66 c72 -185 187 -296
386 -372 l58 -22 2287 -3 2287 -2 33 29 33 29 0 2022 0 2022 -33 29 -32 29
-1240 0 c-682 0 -1240 3 -1240 8 0 4 12 41 27 82 24 67 27 89 27 210 0 121 -2
142 -26 208 -97 267 -323 437 -598 447 -52 2 -115 0 -140 -5z m-1117 -888
c110 -54 188 -159 207 -279 6 -35 10 -630 10 -1482 l0 -1423 -22 16 c-13 9
-45 30 -73 46 -179 108 -436 99 -612 -21 -23 -16 -44 -29 -47 -29 -12 0 -7
2844 5 2905 14 79 51 148 106 202 81 78 151 104 274 100 74 -3 96 -8 152 -35z
m851 -299 l55 -38 3 -510 3 -510 63 -92 c34 -51 62 -95 62 -98 0 -3 -139 -5
-310 -5 l-310 0 0 645 0 645 189 0 190 0 55 -37z m1943 -65 c-40 -57 -245
-347 -456 -645 l-384 -543 -269 0 c-213 0 -268 3 -262 13 4 6 35 53 68 102
l61 90 5 507 5 506 50 35 50 36 602 0 603 1 -73 -102z m937 91 c-4 -7 -209
-298 -457 -647 -247 -350 -461 -653 -475 -674 -31 -48 -26 -102 13 -135 l26
-23 670 0 669 0 0 -310 0 -310 -1219 -2 -1220 -3 -28 -21 c-15 -12 -32 -33
-37 -47 -7 -20 22 -210 118 -774 71 -411 130 -760 133 -775 l6 -28 -262 0
c-202 0 -261 3 -261 13 0 6 -60 362 -134 789 -88 515 -138 785 -149 802 -10
14 -33 30 -54 35 -23 7 -163 11 -345 11 l-308 0 0 105 0 105 1494 0 1494 0 31
29 c55 51 36 134 -36 162 -15 5 -606 9 -1504 9 l-1479 0 0 105 0 105 811 0
c475 0 817 4 828 9 9 5 251 340 536 745 l520 735 313 1 c231 0 311 -3 306 -11z
m446 -634 l0 -645 -551 0 c-437 0 -549 3 -543 13 11 17 851 1205 881 1245 l24
32 95 0 94 0 0 -645z m-2830 55 l0 -435 -59 -89 -59 -88 -61 91 -61 90 0 433
0 433 120 0 120 0 0 -435z m-269 -2420 c65 -377 121 -700 124 -717 l6 -33
-693 0 c-750 0 -764 1 -859 54 -56 31 -129 108 -158 163 -11 22 -26 70 -32
107 -40 214 97 412 306 444 123 20 242 -19 331 -107 58 -58 92 -128 110 -234
18 -101 41 -130 105 -130 35 0 48 6 71 32 l28 31 0 540 0 540 272 -2 272 -3
117 -685z m3099 -30 l0 -720 -1022 2 -1022 3 -122 715 c-68 393 -123 716 -124
718 0 1 515 2 1145 2 l1145 0 0 -720z"/>
<path d="M4510 2253 c-55 -20 -81 -82 -55 -136 30 -63 107 -77 156 -28 73 74
-4 199 -101 164z"/>
</g>
</svg>
