<?xml version="1.0" standalone="no"?>
<!DOCTYPE svg PUBLIC "-//W3C//DTD SVG 20010904//EN"
 "http://www.w3.org/TR/2001/REC-SVG-20010904/DTD/svg10.dtd">
<svg version="1.0" xmlns="http://www.w3.org/2000/svg"
 width="512.000000pt" height="512.000000pt" viewBox="0 0 512.000000 512.000000"
 preserveAspectRatio="xMidYMid meet">

<g transform="translate(0.000000,512.000000) scale(0.100000,-0.100000)"
fill="#000000" stroke="none">
<path d="M2029 5106 c-130 -28 -275 -136 -338 -251 -60 -112 -64 -133 -69
-367 l-4 -217 -661 -3 c-738 -3 -694 1 -777 -75 -24 -21 -54 -60 -66 -88 l-24
-50 0 -1495 0 -1495 24 -50 c26 -56 90 -119 145 -143 25 -11 80 -17 189 -20
l152 -4 0 -27 c0 -39 46 -126 83 -157 155 -131 385 -49 422 149 l7 37 1194 0
1194 0 0 -64 c0 -253 157 -507 390 -630 80 -42 354 -156 376 -156 20 0 268
102 358 147 158 80 271 194 341 347 64 138 65 144 65 738 0 295 -3 544 -6 553
-12 30 -62 47 -115 40 l-49 -7 0 1119 0 1118 -24 50 c-27 58 -101 129 -155
147 -27 9 -216 13 -738 16 l-703 3 0 197 c0 143 -4 214 -15 255 -49 187 -202
338 -386 382 -82 19 -721 20 -810 1z m776 -171 c117 -30 216 -125 250 -238 11
-37 15 -100 15 -239 l0 -188 -85 0 -85 0 0 163 c0 141 -3 168 -21 207 -25 56
-53 86 -104 113 -38 21 -56 22 -323 25 -326 4 -353 -1 -421 -70 -59 -58 -71
-109 -71 -290 l0 -148 -85 0 -85 0 0 163 c0 182 11 260 45 327 44 85 144 161
238 180 23 4 184 8 357 9 253 1 328 -2 375 -14z m-95 -345 c18 -18 20 -33 20
-170 l0 -150 -300 0 -300 0 0 145 c0 142 1 147 25 170 l24 25 256 0 c242 0
256 -1 275 -20z m-1302 -1261 c-2 -3 -261 -247 -575 -543 l-573 -537 0 183 0
183 467 467 468 468 107 -107 c60 -59 107 -110 106 -114z m1330 -552 l252
-253 -2 -195 -3 -194 -194 -3 -195 -2 -253 252 c-139 139 -253 257 -253 263 0
13 372 385 385 385 6 0 124 -114 263 -253z m-825 -935 l117 -117 -120 -120
-120 -120 -115 115 c-63 63 -115 119 -115 125 0 10 220 235 230 235 3 0 58
-53 123 -118z m2267 -867 l0 -755 -52 21 c-29 11 -91 38 -137 60 -140 68 -246
192 -297 349 -16 49 -18 109 -22 521 l-4 466 124 6 c133 6 240 27 328 63 30
13 56 23 58 24 1 0 2 -340 2 -755z"/>
</g>
</svg>
