<?xml version="1.0" standalone="no"?>
<!DOCTYPE svg PUBLIC "-//W3C//DTD SVG 20010904//EN"
 "http://www.w3.org/TR/2001/REC-SVG-20010904/DTD/svg10.dtd">
<svg version="1.0" xmlns="http://www.w3.org/2000/svg"
 width="16.000000pt" height="16.000000pt" viewBox="0 0 16.000000 16.000000"
 preserveAspectRatio="xMidYMid meet">

<g transform="translate(0.000000,16.000000) scale(0.100000,-0.100000)"
fill="#000000" stroke="none">
<path d="M0 80 l0 -80 78 0 77 0 2 80 2 80 -79 0 -80 0 0 -80z m65 61 c-3 -5
-1 -12 4 -15 5 -4 8 -14 6 -24 -1 -9 2 -23 8 -29 17 -22 -3 -14 -31 12 -24 23
-27 23 -34 7 -6 -15 -7 -15 -7 -1 -1 9 7 23 16 30 14 12 16 12 9 0 -6 -9 -5
-12 5 -9 8 3 13 12 11 22 -2 9 2 16 8 16 6 0 9 -4 5 -9z m66 -1 c9 13 10 13 6
0 -2 -8 0 -25 4 -37 5 -14 5 -23 -1 -23 -6 0 -10 -11 -10 -25 0 -14 -6 -25
-12 -26 -7 -1 -2 -5 12 -9 24 -8 23 -8 -7 -9 -24 -1 -35 5 -43 22 -11 21 -10
21 4 3 15 -19 16 -18 16 17 0 26 4 37 15 37 8 0 15 7 15 15 0 15 -25 21 -33 8
-2 -5 -3 -3 -1 3 1 6 -3 17 -9 24 -8 8 -4 8 11 -1 19 -12 24 -12 33 1z m-81
-100 c6 -11 8 -20 6 -20 -3 0 -10 9 -16 20 -6 11 -8 20 -6 20 3 0 10 -9 16
-20z"/>
</g>
</svg>
